HIERARCHY
ROOT Hips
{
	OFFSET 0.000000 0.000000 0.000000
	CHANNELS 6 Xposition Yposition Zposition Xrotation Yrotation Zrotation
	JOINT LeftUpLeg_virtual
	{
		OFFSET 0.000000 0.000000 0.000000
		CHANNELS 3 Xrotation Yrotation Zrotation
		JOINT LeftUpLeg
		{
			OFFSET 15.427100 -6.655098 0.678600
			CHANNELS 3 Xrotation Yrotation Zrotation
			JOINT LeftLeg
			{
				OFFSET 4.081073 -39.591068 13.024000
				CHANNELS 3 Xrotation Yrotation Zrotation
				JOINT LeftFoot
				{
					OFFSET -4.081074 -37.707932 -15.979700
					CHANNELS 3 Xrotation Yrotation Zrotation
					JOINT LeftToeBase
					{
						OFFSET 5.346399 -15.068900 20.645000
						CHANNELS 3 Xrotation Yrotation Zrotation
						JOINT LeftToe_End
						{
							OFFSET 2.754700 0.931300 11.300900
							CHANNELS 3 Xrotation Yrotation Zrotation
							End Site
							{
								OFFSET 0 0 0
							}
						}
					}
				}
			}
		}
	}
	JOINT RightUpLeg_virtual
	{
		OFFSET 0.000000 0.000000 0.000000
		CHANNELS 3 Xrotation Yrotation Zrotation
		JOINT RightUpLeg
		{
			OFFSET -15.569500 -6.655098 0.678600
			CHANNELS 3 Xrotation Yrotation Zrotation
			JOINT RightLeg
			{
				OFFSET -4.081825 -39.591045 13.023800
				CHANNELS 3 Xrotation Yrotation Zrotation
				JOINT RightFoot
				{
					OFFSET 4.081824 -37.707954 -15.979600
					CHANNELS 3 Xrotation Yrotation Zrotation
					JOINT RightToeBase
					{
						OFFSET -5.346400 -15.068900 20.645000
						CHANNELS 3 Xrotation Yrotation Zrotation
						JOINT RightToe_End
						{
							OFFSET -2.754700 0.931300 11.300900
							CHANNELS 3 Xrotation Yrotation Zrotation
							End Site
							{
								OFFSET 0 0 0
							}
						}
					}
				}
			}
		}
	}
	JOINT Spine_virtual
	{
		OFFSET 0.000000 0.000000 0.000000
		CHANNELS 3 Xrotation Yrotation Zrotation
		JOINT Spine
		{
			OFFSET -0.279200 12.230698 -2.892100
			CHANNELS 3 Xrotation Yrotation Zrotation
			JOINT Spine1
			{
				OFFSET -0.232667 10.192268 -1.242267
				CHANNELS 3 Xrotation Yrotation Zrotation
				JOINT Spine1_split
				{
					OFFSET -0.232667 10.192268 -1.242267
					CHANNELS 3 Xrotation Yrotation Zrotation
					JOINT Spine2
					{
						OFFSET -0.232667 10.192268 -1.242267
						CHANNELS 3 Xrotation Yrotation Zrotation
						JOINT Neck_virtual
						{
							OFFSET 0.000000 0.000000 0.000000
							CHANNELS 3 Xrotation Yrotation Zrotation
							JOINT Neck
							{
								OFFSET -0.418800 17.814194 8.416900
								CHANNELS 3 Xrotation Yrotation Zrotation
								JOINT Head
								{
									OFFSET 0.000000 7.031097 3.806800
									CHANNELS 3 Xrotation Yrotation Zrotation
									JOINT HeadTop_End
									{
										OFFSET 0.000000 24.646606 12.978600
										CHANNELS 3 Xrotation Yrotation Zrotation
										End Site
										{
											OFFSET 0 0 0
										}
									}
								}
							}
						}
						JOINT LeftShoulder_virtual
						{
							OFFSET 0.000000 0.000000 0.000000
							CHANNELS 3 Xrotation Yrotation Zrotation
							JOINT LeftShoulder
							{
								OFFSET 8.476499 7.247704 -3.868750
								CHANNELS 3 Xrotation Yrotation Zrotation
								JOINT LeftShoulder_split
								{
									OFFSET 8.476499 7.247704 -3.868750
									CHANNELS 3 Xrotation Yrotation Zrotation
									JOINT LeftArm
									{
										OFFSET 9.308998 -2.777710 0.208600
										CHANNELS 3 Xrotation Yrotation Zrotation
										JOINT LeftForeArm
										{
											OFFSET 29.972298 0.000000 0.000000
											CHANNELS 3 Xrotation Yrotation Zrotation
											JOINT LeftHand
											{
												OFFSET 26.026505 0.000000 0.000000
												CHANNELS 3 Xrotation Yrotation Zrotation
												End Site
												{
													OFFSET 0 0 0
												}
											}
										}
									}
								}
							}
						}
						JOINT RightShoulder_virtual
						{
							OFFSET 0.000000 0.000000 0.000000
							CHANNELS 3 Xrotation Yrotation Zrotation
							JOINT RightShoulder
							{
								OFFSET -7.570500 7.247704 -3.868750
								CHANNELS 3 Xrotation Yrotation Zrotation
								JOINT RightShoulder_split
								{
									OFFSET -7.570500 7.247704 -3.868750
									CHANNELS 3 Xrotation Yrotation Zrotation
									JOINT RightArm
									{
										OFFSET -9.308998 -2.777710 0.208500
										CHANNELS 3 Xrotation Yrotation Zrotation
										JOINT RightForeArm
										{
											OFFSET -29.972300 0.000000 0.000000
											CHANNELS 3 Xrotation Yrotation Zrotation
											JOINT RightHand
											{
												OFFSET -26.026505 0.000000 0.000000
												CHANNELS 3 Xrotation Yrotation Zrotation
												End Site
												{
													OFFSET 0 0 0
												}
											}
										}
									}
								}
							}
						}
					}
				}
			}
		}
	}
}
MOTION
Frames: 5
Frame Time: 0.03333333
3.317976 89.595612 -10.852451 0.000000 0.000000 0.000000 -1.067486 -19.657226 1.530818 -24.430759 30.678901 17.228030 25.230683 3.056668 6.560935 -0.204539 7.817135 -18.619724 -0.934412 -2.295685 -0.393367 0.000000 0.000000 0.000000 -0.846900 -17.710542 1.605093 -9.759742 -13.191048 -11.123500 24.023056 5.523013 -1.248218 -15.288074 -8.277492 21.283202 7.808559 0.684382 -14.782650 0.000000 0.000000 0.000000 -2.619996 -15.016284 0.525303 -0.864347 0.431130 -0.240433 4.266000 -3.785972 0.520868 0.114457 -0.202268 -0.013172 0.000000 0.000000 0.000000 4.592766 -0.959148 0.940409 -8.303537 21.835222 7.715476 -3.851487 -1.158107 -15.404730 0.000000 0.000000 0.000000 4.430862 -3.402233 0.354374 0.697897 4.040466 3.219607 5.592544 -2.579522 0.551142 -55.882060 -1.779750 -42.211870 38.678453 -69.625132 30.559052 0.000000 0.000000 0.000000 4.590840 -2.971001 1.161993 -5.021396 -4.701749 10.772039 -0.664201 -4.722462 3.951002 -54.389196 56.333133 73.532915 -86.513505 83.920294 85.705746 0.000000 0.000000 0.000000 
3.310720 89.598541 -10.848465 0.000000 0.000000 0.000000 -1.070351 -19.658497 1.525531 -24.439539 30.689314 17.233090 25.223583 3.052052 6.562085 -0.217384 7.822136 -18.626573 -0.945113 -2.292621 -0.401715 0.000000 0.000000 0.000000 -0.852551 -17.711210 1.600725 -9.749206 -13.186397 -11.120884 24.017638 5.524088 -1.250617 -15.293733 -8.274539 21.284857 7.798451 0.684151 -14.785616 0.000000 0.000000 0.000000 -2.630348 -14.997914 0.514241 -0.877921 0.427041 -0.230452 4.267815 -3.785580 0.518443 0.110744 -0.202913 -0.012717 0.000000 0.000000 0.000000 4.592341 -0.960917 0.937737 -8.300855 21.825069 7.729821 -3.867324 -1.170362 -15.401146 0.000000 0.000000 0.000000 4.432022 -3.403309 0.354277 0.689878 4.040467 3.189132 5.622052 -2.554462 0.544287 -55.880865 -1.797606 -42.278301 38.834294 -69.660867 30.708237 0.000000 0.000000 0.000000 4.589464 -2.975705 1.156629 -5.020846 -4.710335 10.786108 -0.651923 -4.713521 3.956522 -54.376386 56.292172 73.535954 -86.870287 83.914434 86.055999 0.000000 0.000000 0.000000 
3.302264 89.601837 -10.845997 0.000000 0.000000 0.000000 -1.077030 -19.646491 1.515008 -24.466788 30.710996 17.250857 25.233149 3.034469 6.559770 -0.220673 7.821402 -18.650509 -0.952348 -2.288912 -0.388285 0.000000 0.000000 0.000000 -0.856403 -17.692010 1.590293 -9.728837 -13.174005 -11.110541 24.005038 5.520075 -1.251088 -15.307632 -8.283057 21.287026 7.805217 0.677390 -14.775695 0.000000 0.000000 0.000000 -2.638733 -14.965875 0.498511 -0.897156 0.418855 -0.215526 4.267632 -3.782845 0.517408 0.109773 -0.201667 -0.013730 0.000000 0.000000 0.000000 4.591621 -0.962174 0.936354 -8.290712 21.813789 7.743870 -3.883343 -1.196342 -15.399662 0.000000 0.000000 0.000000 4.425963 -3.404140 0.353560 0.680530 4.046265 3.134291 5.654323 -2.507850 0.547786 -55.899375 -1.784221 -42.386832 39.004120 -69.695496 30.876427 0.000000 0.000000 0.000000 4.581938 -2.980243 1.153108 -5.016708 -4.725069 10.821274 -0.647586 -4.708276 3.945026 -54.331942 56.264257 73.522731 -87.319659 83.898731 86.499947 0.000000 0.000000 0.000000 
3.294915 89.604897 -10.844944 0.000000 0.000000 0.000000 -1.081720 -19.623036 1.503523 -24.509743 30.735564 17.273234 25.255709 3.009396 6.557709 -0.206979 7.815025 -18.683028 -0.955162 -2.284655 -0.359729 0.000000 0.000000 0.000000 -0.855761 -17.657948 1.578643 -9.706890 -13.159031 -11.097025 23.991835 5.514924 -1.248014 -15.318057 -8.299847 21.299865 7.818272 0.666754 -14.755813 0.000000 0.000000 0.000000 -2.642834 -14.923040 0.482844 -0.917252 0.408785 -0.199076 4.265766 -3.779460 0.517980 0.110193 -0.200300 -0.014889 0.000000 0.000000 0.000000 4.590433 -0.964178 0.936899 -8.274885 21.800335 7.757083 -3.898245 -1.227469 -15.401785 0.000000 0.000000 0.000000 4.414494 -3.405172 0.352001 0.670825 4.050301 3.071636 5.684604 -2.438936 0.567648 -55.924052 -1.728196 -42.518727 39.161726 -69.724921 31.039187 0.000000 0.000000 0.000000 4.570443 -2.984773 1.151208 -5.009466 -4.749681 10.868651 -0.659588 -4.701702 3.918074 -54.260314 56.264643 73.482003 -87.748758 83.878302 86.925488 0.000000 0.000000 0.000000 
3.290251 89.607162 -10.844036 0.000000 0.000000 0.000000 -1.078188 -19.591464 1.495504 -24.562924 30.756789 17.292441 25.279152 2.984148 6.559416 -0.183072 7.806413 -18.706363 -0.963062 -2.279293 -0.324516 0.000000 0.000000 0.000000 -0.847873 -17.618140 1.569942 -9.689611 -13.147878 -11.083504 23.980458 5.512431 -1.242351 -15.324957 -8.320656 21.326407 7.827521 0.654877 -14.729938 0.000000 0.000000 0.000000 -2.639033 -14.876990 0.471183 -0.935566 0.401224 -0.184408 4.262872 -3.776751 0.520591 0.110547 -0.200742 -0.014772 0.000000 0.000000 0.000000 4.588802 -0.967243 0.938712 -8.256390 21.782846 7.768854 -3.913437 -1.256192 -15.407667 0.000000 0.000000 0.000000 4.400005 -3.406964 0.350513 0.662212 4.042441 3.026487 5.714435 -2.364188 0.576984 -55.931439 -1.622860 -42.646240 39.303285 -69.765854 31.196483 0.000000 0.000000 0.000000 4.556765 -2.988874 1.151126 -5.000214 -4.787813 10.918711 -0.685269 -4.694176 3.883103 -54.166696 56.304699 73.406598 -88.142328 83.861951 87.318730 0.000000 0.000000 0.000000 
